<svg width="349" height="35" viewBox="0 0 349 35" fill="none" xmlns="http://www.w3.org/2000/svg">
<path d="M0.744 31.88C0.776 31.72 0.792 31.576 0.792 31.448C0.824 31.288 0.856 31.128 0.888 30.968C1.08 29.624 1.176 28.712 1.176 28.232C1.176 28.136 1.144 27.976 1.08 27.752C1.048 27.528 1.016 27.368 0.984 27.272L1.416 16.568C1.256 16.344 1.224 16.056 1.32 15.704C1.416 15.32 1.56 15.08 1.752 14.984C1.88 14.536 2.056 14.024 2.28 13.448C2.536 12.872 2.632 12.216 2.568 11.48C2.536 11.128 2.568 10.84 2.664 10.616C2.76 10.36 2.84 10.2 2.904 10.136L3.288 9.752C3.544 9.496 3.688 9.272 3.72 9.08C3.752 8.856 3.72 8.648 3.624 8.456C3.528 8.264 3.4 8.12 3.24 8.024C3.112 7.896 2.984 7.8 2.856 7.736C2.76 7.64 2.712 7.576 2.712 7.544C2.776 7.352 2.808 7.192 2.808 7.064C2.808 6.936 2.712 6.792 2.52 6.632L2.616 5.48C2.776 5.256 3.064 5.144 3.48 5.144C3.928 5.112 4.28 5.096 4.536 5.096C4.632 5.096 4.792 5.096 5.016 5.096C5.24 5.064 5.496 5.048 5.784 5.048L6.648 5C6.808 4.968 6.936 4.952 7.032 4.952C7.16 4.952 7.272 4.952 7.368 4.952L7.896 4.712C8.12 4.584 8.296 4.52 8.424 4.52C8.52 4.52 8.696 4.568 8.952 4.664C9.24 4.728 9.544 4.856 9.864 5.048L9.624 9.704L9.144 13.784C9.144 13.912 9.064 14.184 8.904 14.6C8.744 14.984 8.584 15.304 8.424 15.56C8.36 15.624 8.328 15.752 8.328 15.944C8.328 16.104 8.328 16.296 8.328 16.52C8.36 16.712 8.376 16.904 8.376 17.096C8.408 17.288 8.408 17.432 8.376 17.528L8.04 21.032C8.04 21.096 8.008 21.16 7.944 21.224C7.912 21.256 7.864 21.368 7.8 21.56C7.768 21.72 7.72 21.96 7.656 22.28C7.592 22.6 7.544 23.048 7.512 23.624C7.448 24.84 7.384 25.688 7.32 26.168C7.256 26.648 7.224 26.92 7.224 26.984C7.224 27.304 7.32 27.528 7.512 27.656C7.736 27.784 7.848 27.976 7.848 28.232C7.72 28.36 7.752 28.6 7.944 28.952C8.168 29.304 8.552 29.528 9.096 29.624C9.64 29.72 10.248 29.688 10.92 29.528C11.592 29.336 12.328 29.208 13.128 29.144C13.416 29.144 13.592 29.176 13.656 29.24C13.752 29.304 13.832 29.384 13.896 29.48C13.992 29.544 14.136 29.624 14.328 29.72C14.552 29.784 14.952 29.832 15.528 29.864C15.656 29.864 15.896 29.768 16.248 29.576C16.632 29.384 16.792 29.08 16.728 28.664C16.984 28.664 17.304 28.616 17.688 28.52C18.104 28.424 18.52 28.344 18.936 28.28C19.352 28.216 19.72 28.216 20.04 28.28C20.36 28.312 20.568 28.472 20.664 28.76L20.856 29.48C20.824 29.544 20.808 29.624 20.808 29.72C20.808 29.784 20.792 29.864 20.76 29.96C20.728 30.12 20.68 30.344 20.616 30.632C20.552 30.888 20.488 31.192 20.424 31.544C19.752 31.608 19.384 31.624 19.32 31.592C19.256 31.56 19.192 31.544 19.128 31.544C19.032 31.544 18.872 31.608 18.648 31.736C18.456 31.832 18.296 31.912 18.168 31.976C17.976 32.008 17.656 32.056 17.208 32.12C16.792 32.184 16.264 32.248 15.624 32.312C15.272 32.376 14.968 32.424 14.712 32.456C14.488 32.456 14.296 32.472 14.136 32.504C14.008 32.536 13.848 32.552 13.656 32.552C13.624 32.552 13.512 32.568 13.32 32.6C13.128 32.6 12.904 32.6 12.648 32.6H11.208C10.568 32.536 10.104 32.488 9.816 32.456C9.56 32.424 9.352 32.424 9.192 32.456C9.064 32.456 8.936 32.504 8.808 32.6C8.712 32.664 8.488 32.792 8.136 32.984C8.008 33.016 7.768 33.032 7.416 33.032H5.352C5.096 33 4.888 32.984 4.728 32.984C4.6 32.952 4.456 32.92 4.296 32.888L2.424 33.464C1.976 33.4 1.624 33.208 1.368 32.888C1.112 32.568 0.904 32.232 0.744 31.88ZM46.92 13.4L46.008 20.12L46.152 22.856L45.912 25.736L45.192 28.52L42.408 32.648C41.192 33.576 39.88 34.2 38.472 34.52C37.064 34.84 35.544 34.92 33.912 34.76L31.656 33.752H30.36C29.848 33.752 28.952 33.256 27.672 32.264C27.128 31.848 26.664 31.48 26.28 31.16C26.184 31.096 26.088 31.032 25.992 30.968C25.928 30.904 25.864 30.84 25.8 30.776C25.8 30.52 25.768 30.2 25.704 29.816C25.64 29.432 25.544 28.952 25.416 28.376C25.32 27.8 25.224 27.352 25.128 27.032C25.064 26.68 25.016 26.424 24.984 26.264C24.984 26.168 25 26.056 25.032 25.928C25.064 25.768 25.064 25.624 25.032 25.496C25.032 25.336 24.984 25.208 24.888 25.112C24.792 25.016 24.616 24.968 24.36 24.968L24.504 22.28C24.632 21.928 24.696 21.688 24.696 21.56C24.696 21.432 24.68 21.32 24.648 21.224C24.616 21.128 24.6 21 24.6 20.84C24.6 20.68 24.68 20.408 24.84 20.024L25.08 18.248C25.368 18.344 25.592 18.264 25.752 18.008C25.944 17.752 26.056 17.448 26.088 17.096C26.152 16.712 26.136 16.376 26.04 16.088C25.944 15.768 25.752 15.608 25.464 15.608C25.336 15.352 25.256 15.08 25.224 14.792C25.192 14.472 25.208 14.312 25.272 14.312C25.272 14.12 25.256 13.896 25.224 13.64C25.192 13.384 25.176 12.904 25.176 12.2L26.568 11.048C26.952 11.08 27.432 11.112 28.008 11.144C28.584 11.144 29.176 11.144 29.784 11.144C30.424 11.144 31.032 11.16 31.608 11.192C32.184 11.192 32.648 11.224 33 11.288L33.384 11.912C33.192 12.552 33.096 13.016 33.096 13.304C33.064 13.496 33.064 13.656 33.096 13.784L33 15.992C32.904 16.184 32.808 16.472 32.712 16.856C32.648 17.208 32.584 17.608 32.52 18.056C32.488 18.472 32.456 18.904 32.424 19.352C32.392 19.8 32.376 20.184 32.376 20.504C32.216 21.048 32.056 21.624 31.896 22.232C31.736 22.808 31.72 23.352 31.848 23.864C31.912 24.024 31.944 24.232 31.944 24.488C31.976 24.712 32.088 25.144 32.28 25.784C32.216 25.976 32.168 26.216 32.136 26.504C32.104 26.792 32.088 27.096 32.088 27.416C32.12 27.704 32.184 28.008 32.28 28.328C32.408 28.616 32.584 28.856 32.808 29.048L34.632 30.488L37.512 30.728C37.832 31.144 38.12 31.352 38.376 31.352C38.632 31.32 38.84 30.984 39 30.344L40.68 29.336L42.024 25.784L42.072 23.576V21.224C42.712 20.776 43.064 20.296 43.128 19.784C43.192 19.272 42.856 18.664 42.12 17.96L41.976 12.44L42.936 11.576L45.864 11.816L46.92 13.4ZM55.8919 3.992C55.9559 3.736 55.9879 3.496 55.9879 3.272C56.0199 3.016 56.0519 2.76 56.0839 2.504C56.0839 2.28 56.0839 2.088 56.0839 1.928C56.1159 1.768 56.1319 1.624 56.1319 1.496L56.3719 0.967998C56.4679 0.935998 56.5959 0.919998 56.7559 0.919998C56.9159 0.919998 57.1079 0.903998 57.3319 0.871999C58.0039 0.839999 58.4359 0.759999 58.6279 0.631999C58.6279 0.599999 58.7079 0.535999 58.8679 0.439999C58.9639 0.343998 59.0439 0.279998 59.1079 0.247998C59.1399 0.247998 59.2519 0.263998 59.4439 0.295998C59.6359 0.327997 59.8919 0.391997 60.2119 0.487998C60.7559 0.615998 61.1399 0.679998 61.3639 0.679998C61.6519 0.679998 61.8119 0.663999 61.8439 0.631999C61.8759 0.599999 61.9719 0.599999 62.1319 0.631999L62.5639 1.448L62.9959 3.896L61.9879 5.576C61.9559 5.608 61.9239 5.64 61.8919 5.672C61.8919 5.704 61.8599 5.736 61.7959 5.768C61.6359 5.864 61.4439 6.008 61.2199 6.2L61.0759 6.344L59.6359 6.488C59.4439 6.424 59.2199 6.36 58.9639 6.296C58.7079 6.2 58.4039 6.088 58.0519 5.96C57.6999 5.832 57.3959 5.72 57.1399 5.624C56.8839 5.496 56.6599 5.4 56.4679 5.336L56.2279 5.096L55.8919 3.992ZM61.8439 12.248L61.6519 13.976L61.8439 14.696L61.5559 15.464L61.6999 16.568L61.4599 17.48L61.6039 17.768L61.4119 19.928L61.2199 24.488C61.2199 24.712 61.1879 25 61.1239 25.352C61.0599 25.672 61.0119 26.024 60.9799 26.408C60.9479 26.76 60.9479 27.128 60.9799 27.512C61.0119 27.864 61.1079 28.168 61.2679 28.424C61.2359 28.904 61.1879 29.464 61.1239 30.104C61.0599 30.744 60.9479 31.48 60.7879 32.312C60.5319 32.664 60.2599 32.984 59.9719 33.272C59.7159 33.528 59.2199 33.672 58.4839 33.704C58.0679 33.736 57.6519 33.768 57.2359 33.8C56.8519 33.832 56.4839 33.88 56.1319 33.944C55.9399 33.976 55.7479 34.008 55.5559 34.04C55.3639 34.072 55.1559 34.12 54.9319 34.184L53.7319 32.648C53.7639 32.488 53.8119 32.056 53.8759 31.352C53.9719 30.616 54.0519 29.752 54.1159 28.76C54.1799 27.768 54.2119 26.712 54.2119 25.592C54.2439 24.472 54.2119 23.432 54.1159 22.472L54.4039 21.56L54.8359 19.448L54.9799 17.768L55.2679 17.192L55.3159 16.76L55.6039 15.464L55.8439 12.824L60.1639 11.144L61.8439 12.248ZM68.8789 13.544H68.7349C68.6069 13.544 68.5429 13.448 68.5429 13.256L68.8789 13.544ZM67.9669 30.824C68.0309 30.664 68.1589 30.456 68.3509 30.2L68.7829 29.624C69.1669 29.144 69.4709 28.744 69.6949 28.424C69.9189 28.104 70.0949 27.864 70.2229 27.704C70.2229 27.64 70.2389 27.56 70.2709 27.464C70.3029 27.368 70.3189 27.208 70.3189 26.984L74.3509 20.168C74.7669 20.168 74.9749 20.088 74.9749 19.928C75.0069 19.736 75.0869 19.608 75.2149 19.544C75.3109 19.448 75.4069 19.288 75.5029 19.064C75.6309 18.808 75.7589 18.536 75.8869 18.248C76.0149 17.96 76.1749 17.672 76.3669 17.384C76.5589 17.064 76.7989 16.792 77.0869 16.568C78.2709 15.64 78.9269 15.064 79.0549 14.84C79.0869 14.712 78.9589 14.488 78.6709 14.168L78.1909 13.784C77.7429 13.816 77.3749 13.928 77.0869 14.12C76.8309 14.312 76.4949 14.408 76.0789 14.408C75.6309 14.184 75.1669 14.04 74.6869 13.976C74.2389 13.912 73.7749 13.88 73.2949 13.88C72.8149 13.88 72.3349 13.896 71.8549 13.928C71.3749 13.928 70.9109 13.896 70.4629 13.832C70.0789 13.768 69.7429 13.72 69.4549 13.688C69.1989 13.624 69.0069 13.576 68.8789 13.544L68.5429 13.256V12.728C68.5429 12.6 68.5429 12.392 68.5429 12.104C68.5429 11.816 68.5109 11.624 68.4469 11.528L69.1189 10.616C69.6949 10.584 70.3189 10.584 70.9909 10.616C71.6949 10.616 72.4629 10.648 73.2949 10.712C73.8709 10.744 74.3029 10.744 74.5909 10.712C74.9109 10.68 75.1509 10.632 75.3109 10.568C75.5029 10.504 75.6629 10.44 75.7909 10.376C75.9189 10.312 76.1109 10.28 76.3669 10.28C76.3029 10.472 76.3829 10.632 76.6069 10.76C76.8629 10.888 77.1669 10.984 77.5189 11.048C77.8709 11.112 78.2389 11.144 78.6229 11.144C79.0389 11.112 79.3909 11.048 79.6789 10.952C80.7349 10.568 81.5189 10.408 82.0309 10.472C82.2549 10.568 82.5429 10.648 82.8949 10.712C83.2789 10.776 83.6789 10.84 84.0949 10.904C84.5429 10.936 84.9749 10.984 85.3909 11.048C85.8069 11.112 86.1909 11.208 86.5429 11.336V12.2C86.6709 12.296 86.7829 12.376 86.8789 12.44C87.0069 12.504 87.1829 12.632 87.4069 12.824C87.2789 13.048 87.1669 13.288 87.0709 13.544C86.9749 13.8 86.8949 14.04 86.8309 14.264C86.7669 14.424 86.7189 14.568 86.6869 14.696C86.6869 14.824 86.6709 14.952 86.6389 15.08L84.6229 18.248L82.5109 21.8C82.4469 21.864 82.3669 22.024 82.2709 22.28C82.2069 22.536 82.0629 22.728 81.8389 22.856C81.7749 22.888 81.6789 22.968 81.5509 23.096C81.4229 23.224 81.2789 23.368 81.1189 23.528C80.9589 23.656 80.7989 23.784 80.6389 23.912C80.5109 24.008 80.4149 24.056 80.3509 24.056L80.2069 24.104C79.9829 24.52 79.7429 24.92 79.4869 25.304C79.2309 25.656 78.8629 26.136 78.3829 26.744C77.9029 27 77.4069 27.16 76.8949 27.224C76.3829 27.256 76.1109 27.272 76.0789 27.272C75.6629 27.336 75.3429 27.48 75.1189 27.704C74.9269 27.928 74.8149 28.168 74.7829 28.424C74.7509 28.648 74.7829 28.856 74.8789 29.048C75.0069 29.208 75.1829 29.256 75.4069 29.192C75.7909 29.128 76.2389 29.08 76.7509 29.048C77.2629 29.016 77.8869 28.936 78.6229 28.808C78.9109 28.744 79.1669 28.712 79.3909 28.712C79.6149 28.68 79.7749 28.68 79.8709 28.712C79.9989 28.744 80.2069 28.776 80.4949 28.808C80.8149 28.808 81.1989 28.792 81.6469 28.76C82.7669 28.696 83.3589 28.696 83.4229 28.76C83.4549 28.792 83.5029 28.84 83.5669 28.904C83.6629 28.936 83.7429 29 83.8069 29.096C84.0309 29.16 84.3989 29.16 84.9109 29.096C85.4549 29 86.1109 28.888 86.8789 28.76C87.2309 28.696 87.5349 28.648 87.7909 28.616C88.0469 28.552 88.2709 28.488 88.4629 28.424L89.3269 29.384L89.4229 30.2L88.5589 32.264C87.9509 32.392 87.3749 32.536 86.8309 32.696C86.2869 32.856 85.8229 32.84 85.4389 32.648C84.6069 32.52 84.0309 32.472 83.7109 32.504C83.5189 32.536 83.2469 32.568 82.8949 32.6C82.5749 32.6 82.1589 32.584 81.6469 32.552C80.4629 32.68 79.1349 32.68 77.6629 32.552C76.9269 32.488 76.0309 32.552 74.9749 32.744C73.9189 32.904 72.9589 33.208 72.0949 33.656L71.6629 33.512C71.2789 33.448 70.9909 33.48 70.7989 33.608C70.7669 33.64 70.7349 33.656 70.7029 33.656C70.6709 33.656 70.6389 33.672 70.6069 33.704L70.3669 33.608C69.9829 33.384 69.7749 33.272 69.7429 33.272C69.7109 33.24 69.7109 33.208 69.7429 33.176H68.5429L67.9669 30.824ZM108.083 32.072V30.92C108.083 30.568 108.051 30.232 107.987 29.912C108.147 29.624 108.163 28.76 108.035 27.32C107.971 26.552 107.907 25.928 107.843 25.448C107.811 24.968 107.795 24.632 107.795 24.44V24.056C107.795 23.928 107.795 23.8 107.795 23.672C107.827 23.512 107.859 23.352 107.891 23.192C107.923 22.456 107.971 21.96 108.035 21.704C108.067 21.608 108.147 21.48 108.275 21.32C108.403 21.128 108.467 20.936 108.467 20.744C108.467 19.304 108.531 17.768 108.659 16.136C108.819 14.472 108.915 12.92 108.947 11.48C108.979 10.36 108.995 9.464 108.995 8.792C108.995 8.12 109.011 7.704 109.043 7.544C109.075 7.128 109.075 6.68 109.043 6.2C109.043 5.688 109.043 5.208 109.043 4.76C109.043 4.664 109.027 4.6 108.995 4.568L110.243 3.56H114.419C114.867 3.496 115.187 3.48 115.379 3.512C115.571 3.544 115.699 3.592 115.763 3.656L116.819 4.424C117.107 4.776 117.347 4.984 117.539 5.048C117.763 5.08 117.939 5.032 118.067 4.904C118.227 4.744 118.371 4.552 118.499 4.328C118.627 4.072 118.755 3.832 118.883 3.608L121.427 3.752L125.219 5.336C125.347 5.464 125.459 5.592 125.555 5.72C125.651 5.816 125.747 5.896 125.843 5.96C126.003 6.12 126.147 6.264 126.275 6.392C126.435 6.52 126.547 6.584 126.611 6.584C126.675 6.584 126.979 6.664 127.523 6.824C128.099 6.984 128.611 7.432 129.059 8.168C129.411 8.168 129.763 8.28 130.115 8.504C130.499 8.728 130.819 8.984 131.075 9.272C131.331 9.528 131.523 9.784 131.651 10.04C131.811 10.264 131.859 10.392 131.795 10.424C131.251 10.936 131.075 11.384 131.267 11.768C131.491 12.152 131.811 12.424 132.227 12.584C132.355 13.128 132.611 13.512 132.995 13.736C133.379 13.928 133.667 14.072 133.859 14.168C133.859 14.264 133.891 14.76 133.955 15.656C134.019 16.52 134.115 17.784 134.243 19.448C134.307 20.28 134.371 21.016 134.435 21.656C134.499 22.264 134.563 22.776 134.627 23.192C134.691 23.448 134.739 23.688 134.771 23.912C134.803 24.104 134.835 24.28 134.867 24.44C134.899 24.6 134.355 25.512 133.235 27.176C132.083 28.776 131.507 29.848 131.507 30.392H128.963C128.835 30.392 128.675 30.456 128.483 30.584C128.291 30.68 128.099 30.792 127.907 30.92L127.139 31.4C127.043 31.432 126.947 31.448 126.851 31.448C126.755 31.448 126.643 31.464 126.515 31.496C126.323 31.528 126.067 31.56 125.747 31.592C125.459 31.624 125.123 31.672 124.739 31.736C123.939 31.896 123.267 31.992 122.723 32.024C122.179 32.056 121.731 32.04 121.379 31.976C121.347 31.56 120.259 31.688 118.115 32.36C117.571 32.52 117.011 32.664 116.435 32.792C115.859 32.888 115.331 32.968 114.851 33.032C114.563 33.096 114.275 33.144 113.987 33.176C113.731 33.208 113.475 33.24 113.219 33.272L112.163 33.032C111.971 33.064 111.779 33.112 111.587 33.176C111.395 33.208 111.267 33.224 111.203 33.224C111.107 33.224 110.963 33.192 110.771 33.128C110.611 33.064 110.467 33.032 110.339 33.032C110.275 33.032 110.131 33.048 109.907 33.08C109.715 33.08 109.587 33.112 109.523 33.176L108.083 32.072ZM117.395 30.248C117.715 30.12 118.051 29.944 118.403 29.72C118.787 29.464 119.107 29.384 119.363 29.48H120.707C120.771 29.48 120.915 29.4 121.139 29.24C121.363 29.048 121.523 28.952 121.619 28.952C121.747 28.952 121.811 29.016 121.811 29.144C121.811 29.24 121.987 29.288 122.339 29.288C122.467 29.288 122.771 29.224 123.251 29.096C123.731 28.936 124.243 28.728 124.787 28.472C125.363 28.216 125.811 28.024 126.131 27.896C126.483 27.768 126.691 27.688 126.755 27.656C126.787 27.592 126.803 27.512 126.803 27.416C126.835 27.32 126.883 27.208 126.947 27.08C127.011 26.888 127.075 26.664 127.139 26.408C127.235 26.152 127.363 25.848 127.523 25.496C127.747 24.728 127.923 24.136 128.051 23.72C128.179 23.304 128.243 23.016 128.243 22.856L126.707 17.192C126.707 16.968 126.723 16.792 126.755 16.664C126.755 16.504 126.755 16.312 126.755 16.088C126.787 15.832 126.819 15.528 126.851 15.176C126.979 13.8 127.059 13.112 127.091 13.112C127.059 13.08 126.947 12.904 126.755 12.584C126.595 12.264 126.355 11.832 126.035 11.288C125.715 10.712 125.443 10.12 125.219 9.512C125.027 8.872 124.867 8.552 124.739 8.552L120.947 6.104H117.347C117.347 6.488 117.267 6.712 117.107 6.776C116.947 6.808 116.867 6.856 116.867 6.92V7.784C116.867 8.04 116.867 8.344 116.867 8.696C116.867 9.048 116.851 9.448 116.819 9.896V13.064C116.275 13.352 115.971 13.688 115.907 14.072C115.907 14.36 115.763 14.808 115.475 15.416C115.411 15.48 115.379 15.592 115.379 15.752C115.379 16.2 115.379 16.52 115.379 16.712C115.411 16.872 115.379 17.16 115.283 17.576C115.219 17.64 115.283 18.2 115.475 19.256C115.667 20.376 115.779 20.952 115.811 20.984C115.779 21.144 115.731 21.368 115.667 21.656C115.635 21.944 115.571 22.28 115.475 22.664C115.379 23.048 115.315 23.336 115.283 23.528C115.251 23.72 115.235 23.848 115.235 23.912C115.235 24.296 115.283 24.984 115.379 25.976C115.411 26.488 115.427 26.936 115.427 27.32C115.459 27.672 115.475 27.928 115.475 28.088C115.539 28.344 115.587 28.6 115.619 28.856C115.683 29.112 115.747 29.384 115.811 29.672L117.395 30.248ZM161.419 17C161.515 17.544 161.563 18.024 161.563 18.44C161.563 18.824 161.547 19.208 161.515 19.592C161.515 19.944 161.531 20.296 161.563 20.648C161.627 20.968 161.755 21.32 161.947 21.704C161.883 21.832 161.723 22.088 161.467 22.472C161.243 22.824 161.083 23.192 160.987 23.576C160.923 23.928 160.875 24.2 160.843 24.392C160.811 24.584 160.779 24.712 160.747 24.776C160.843 24.84 160.923 24.968 160.987 25.16C161.019 25.32 160.987 25.528 160.891 25.784C160.795 26.008 160.603 26.328 160.315 26.744C159.739 27.512 159.419 28.168 159.355 28.712C159.291 29.224 159.163 29.624 158.971 29.912C158.907 29.976 158.699 30.072 158.347 30.2C158.027 30.328 157.643 30.488 157.195 30.68C156.747 30.84 156.299 31.032 155.851 31.256C155.403 31.48 155.051 31.704 154.795 31.928C154.251 32.024 153.771 32.152 153.355 32.312C152.939 32.472 152.427 32.584 151.819 32.648C151.243 32.776 150.651 32.936 150.043 33.128C149.435 33.288 149.099 33.368 149.035 33.368C147.531 33.368 146.635 33.416 146.347 33.512C146.091 33.608 145.787 33.656 145.435 33.656L141.067 32.072L139.051 29.144C139.051 28.376 139.019 27.736 138.955 27.224C138.923 26.68 138.875 26.216 138.811 25.832C138.747 25.416 138.699 25.032 138.667 24.68C138.635 24.328 138.635 23.928 138.667 23.48C138.763 23.384 138.907 23.16 139.099 22.808C139.291 22.424 139.483 21.992 139.675 21.512C139.899 21.032 140.107 20.536 140.299 20.024C140.523 19.512 140.683 19.08 140.779 18.728C141.035 17.992 141.227 17.352 141.355 16.808C141.483 16.232 141.579 15.72 141.643 15.272C141.899 15.112 142.107 14.936 142.267 14.744C142.427 14.552 142.587 14.392 142.747 14.264C144.059 13.496 145.195 12.872 146.155 12.392C147.115 11.88 148.011 11.56 148.843 11.432L150.283 11.336C150.443 11.368 150.587 11.4 150.715 11.432C150.843 11.464 150.971 11.496 151.099 11.528C151.291 11.592 151.467 11.64 151.627 11.672C151.787 11.672 151.883 11.672 151.915 11.672L152.875 13.16C152.875 13.448 152.811 13.688 152.683 13.88C152.555 14.04 152.683 14.152 153.067 14.216C153.483 14.312 153.707 14.376 153.739 14.408V14.456C154.251 14.456 154.779 14.344 155.323 14.12C155.867 13.864 156.411 13.736 156.955 13.736C157.083 13.736 157.307 13.8 157.627 13.928C157.947 14.024 158.283 14.152 158.635 14.312C158.987 14.472 159.307 14.632 159.595 14.792C159.915 14.92 160.139 15.016 160.267 15.08C160.203 15.56 160.219 15.896 160.315 16.088C160.411 16.28 160.539 16.424 160.699 16.52C160.859 16.584 161.003 16.648 161.131 16.712C161.291 16.744 161.387 16.84 161.419 17ZM152.827 29C153.307 28.68 153.771 27.656 154.219 25.928C154.475 25 154.683 24.312 154.843 23.864C155.035 23.384 155.131 22.936 155.131 22.52C155.131 21.816 154.891 20.984 154.411 20.024C154.155 19.512 153.963 19.08 153.835 18.728C153.707 18.376 153.611 18.024 153.547 17.672C153.291 17.544 153.147 17.352 153.115 17.096C153.115 16.808 152.987 16.52 152.731 16.232C152.411 15.976 152.219 15.88 152.155 15.944C152.091 16.008 152.027 16.04 151.963 16.04H151.531C151.275 16.04 150.923 16.088 150.475 16.184C150.059 16.28 149.723 16.504 149.467 16.856C149.083 17.272 148.747 17.608 148.459 17.864C148.203 18.088 148.059 18.232 148.027 18.296C147.707 18.904 147.419 19.432 147.163 19.88C146.907 20.296 146.699 20.632 146.539 20.888L146.107 21.896C145.915 22.376 145.835 23.016 145.867 23.816C145.931 23.944 145.995 24.232 146.059 24.68C146.123 25.096 145.931 25.544 145.483 26.024C145.387 26.12 145.291 26.312 145.195 26.6C145.099 26.856 145.035 27.16 145.003 27.512C144.971 27.864 145.003 28.216 145.099 28.568C145.227 28.92 145.467 29.224 145.819 29.48C146.267 29.8 146.731 30.12 147.211 30.44C147.691 30.728 147.995 30.872 148.123 30.872H148.651C148.843 30.872 149.019 30.92 149.179 31.016L152.827 29ZM199.873 32.216L197.185 33.032L193.681 33.464L193.345 32.648L194.065 29.864L194.929 27.32L195.169 18.248L194.017 16.088H192.625L190.417 17.72H189.889C189.537 17.72 189.313 17.928 189.217 18.344C189.153 18.728 189.153 19.176 189.217 19.688C188.929 19.784 188.721 20.264 188.593 21.128L188.401 22.472L188.353 25.4L187.489 29.24L187.825 31.16L187.393 32.888L186.961 33.32L181.633 33.704L180.529 32.696L180.865 30.824L181.537 25.88C181.665 25.304 181.777 24.648 181.873 23.912C182.001 23.176 182.097 22.44 182.161 21.704C182.225 20.936 182.257 20.216 182.257 19.544C182.289 18.84 182.289 18.264 182.257 17.816C182.193 17.464 182.193 17.176 182.257 16.952C182.321 16.696 182.337 16.504 182.305 16.376L181.393 15.512L178.417 15.992L177.457 15.176C176.689 14.728 176.289 15 176.257 15.992C176.065 16.28 175.889 16.52 175.729 16.712C175.601 16.872 175.521 17.128 175.489 17.48C175.329 17.544 175.201 17.624 175.105 17.72C174.977 17.848 174.849 18.04 174.721 18.296C174.593 18.552 174.497 18.92 174.433 19.4C174.305 20.328 174.241 21.112 174.241 21.752C174.241 22.392 174.321 22.84 174.481 23.096V23.96L173.665 25.88L173.425 29.288L172.993 32.6L172.609 33.032L166.801 33.512L165.841 32.648L166.129 30.824L166.417 28.328L166.609 24.68C166.609 24.072 166.689 23.496 166.849 22.952C167.009 22.408 167.153 21.8 167.281 21.128L167.761 17.336C167.985 17.112 168.225 16.712 168.481 16.136C168.769 15.56 168.913 15 168.913 14.456C168.913 14.296 168.881 14.184 168.817 14.12C168.785 14.024 168.737 13.912 168.673 13.784L169.393 12.824C169.457 12.824 169.601 12.84 169.825 12.872C170.049 12.872 170.305 12.872 170.593 12.872C170.913 12.84 171.233 12.824 171.553 12.824C171.873 12.792 172.177 12.744 172.465 12.68C173.617 12.52 174.337 12.28 174.625 11.96L176.449 11.864L176.257 13.688C176.545 13.976 176.849 14.152 177.169 14.216C177.521 14.248 177.873 14.2 178.225 14.072C178.577 13.912 178.913 13.688 179.233 13.4C179.553 13.08 179.825 12.712 180.049 12.296L182.785 12.344C183.137 12.312 183.473 12.296 183.793 12.296C184.145 12.264 184.481 12.248 184.801 12.248C185.313 12.248 185.793 12.296 186.241 12.392C186.689 12.456 186.945 12.568 187.009 12.728C187.137 13.304 187.409 13.528 187.825 13.4C187.889 13.368 188.001 13.48 188.161 13.736C188.353 13.96 188.641 14.104 189.025 14.168C189.217 14.232 189.345 14.344 189.409 14.504C189.505 14.632 189.569 14.776 189.601 14.936C189.633 15.096 189.665 15.24 189.697 15.368C189.729 15.464 189.793 15.512 189.889 15.512L192.673 13.304L197.137 12.584L201.217 15.848L201.313 16.52C201.313 16.712 201.297 16.904 201.265 17.096C201.265 17.256 201.217 17.384 201.121 17.48V21.8L201.169 26.408L200.305 31.736L199.873 32.216ZM210.486 3.992C210.55 3.736 210.582 3.496 210.582 3.272C210.614 3.016 210.646 2.76 210.678 2.504C210.678 2.28 210.678 2.088 210.678 1.928C210.71 1.768 210.726 1.624 210.726 1.496L210.966 0.967998C211.062 0.935998 211.19 0.919998 211.35 0.919998C211.51 0.919998 211.702 0.903998 211.926 0.871999C212.598 0.839999 213.03 0.759999 213.222 0.631999C213.222 0.599999 213.302 0.535999 213.462 0.439999C213.558 0.343998 213.638 0.279998 213.702 0.247998C213.734 0.247998 213.846 0.263998 214.038 0.295998C214.23 0.327997 214.486 0.391997 214.806 0.487998C215.35 0.615998 215.734 0.679998 215.958 0.679998C216.246 0.679998 216.406 0.663999 216.438 0.631999C216.47 0.599999 216.566 0.599999 216.726 0.631999L217.158 1.448L217.59 3.896L216.582 5.576C216.55 5.608 216.518 5.64 216.486 5.672C216.486 5.704 216.454 5.736 216.39 5.768C216.23 5.864 216.038 6.008 215.814 6.2L215.67 6.344L214.23 6.488C214.038 6.424 213.814 6.36 213.558 6.296C213.302 6.2 212.998 6.088 212.646 5.96C212.294 5.832 211.99 5.72 211.734 5.624C211.478 5.496 211.254 5.4 211.062 5.336L210.822 5.096L210.486 3.992ZM216.438 12.248L216.246 13.976L216.438 14.696L216.15 15.464L216.294 16.568L216.054 17.48L216.198 17.768L216.006 19.928L215.814 24.488C215.814 24.712 215.782 25 215.718 25.352C215.654 25.672 215.606 26.024 215.574 26.408C215.542 26.76 215.542 27.128 215.574 27.512C215.606 27.864 215.702 28.168 215.862 28.424C215.83 28.904 215.782 29.464 215.718 30.104C215.654 30.744 215.542 31.48 215.382 32.312C215.126 32.664 214.854 32.984 214.566 33.272C214.31 33.528 213.814 33.672 213.078 33.704C212.662 33.736 212.246 33.768 211.83 33.8C211.446 33.832 211.078 33.88 210.726 33.944C210.534 33.976 210.342 34.008 210.15 34.04C209.958 34.072 209.75 34.12 209.526 34.184L208.326 32.648C208.358 32.488 208.406 32.056 208.47 31.352C208.566 30.616 208.646 29.752 208.71 28.76C208.774 27.768 208.806 26.712 208.806 25.592C208.838 24.472 208.806 23.432 208.71 22.472L208.998 21.56L209.43 19.448L209.574 17.768L209.862 17.192L209.91 16.76L210.198 15.464L210.438 12.824L214.758 11.144L216.438 12.248ZM229.905 33.992C229.809 33.992 229.601 34.008 229.281 34.04C228.993 34.04 228.673 34.056 228.321 34.088C227.969 34.088 227.633 34.104 227.313 34.136C226.993 34.136 226.769 34.136 226.641 34.136L225.585 34.232L224.769 33.656C224.737 33.176 224.769 32.616 224.865 31.976C224.993 31.336 225.057 30.84 225.057 30.488C225.441 30.488 225.521 30.104 225.297 29.336C225.041 28.568 224.945 27.96 225.009 27.512C225.041 27 225.121 26.488 225.249 25.976C225.377 25.432 225.393 25.08 225.297 24.92C225.233 24.728 225.153 24.52 225.057 24.296C224.961 24.04 224.881 23.752 224.817 23.432L225.393 20.312C225.393 18.584 225.409 17.256 225.441 16.328C225.505 15.4 225.553 14.712 225.585 14.264C225.649 13.816 225.713 13.544 225.777 13.448C225.873 13.32 225.937 13.208 225.969 13.112C226.033 13.016 226.065 12.856 226.065 12.632C226.097 12.408 226.097 11.96 226.065 11.288L227.073 10.76C227.617 10.792 228.273 10.888 229.041 11.048C229.841 11.176 230.609 11.32 231.345 11.48C231.729 11.544 232.065 11.608 232.353 11.672C232.641 11.704 232.897 11.752 233.121 11.816L233.793 12.728C233.185 13.144 232.785 13.416 232.593 13.544C232.401 13.672 232.385 13.944 232.545 14.36C233.121 14.872 233.617 15.032 234.033 14.84C234.481 14.648 234.785 14.344 234.945 13.928L238.065 13.16H239.889L240.705 13.448C241.473 13.704 242.241 13.976 243.009 14.264C243.809 14.552 244.465 14.776 244.977 14.936L245.841 17.048L245.793 17.624C245.857 18.552 245.905 19.448 245.937 20.312C246.001 21.144 246.001 22.168 245.937 23.384C245.905 24.152 245.873 24.936 245.841 25.736C245.809 26.504 245.777 27.24 245.745 27.944C245.745 28.648 245.745 29.272 245.745 29.816C245.745 30.328 245.745 30.712 245.745 30.968C245.745 31 245.777 31.128 245.841 31.352C245.937 31.576 246.065 31.816 246.225 32.072L245.889 32.6L244.977 33.032C244.529 33.064 243.953 33.144 243.249 33.272C242.577 33.4 242.017 33.464 241.569 33.464C241.377 33.464 241.217 33.4 241.089 33.272C240.961 33.112 240.673 33.048 240.225 33.08L239.553 32.504C239.617 32.088 239.633 31.752 239.601 31.496C239.569 31.208 239.521 30.968 239.457 30.776C239.393 30.552 239.329 30.36 239.265 30.2C239.201 30.04 239.169 29.88 239.169 29.72C239.201 29.24 239.249 28.712 239.313 28.136C239.377 27.688 239.441 27.176 239.505 26.6C239.601 25.992 239.713 25.4 239.841 24.824C239.905 24.472 239.937 24.024 239.937 23.48C239.937 22.904 239.937 22.344 239.937 21.8C239.937 21.224 239.937 20.68 239.937 20.168C239.937 19.656 239.953 19.272 239.985 19.016L238.593 16.568C238.465 16.536 238.337 16.504 238.209 16.472C238.081 16.44 237.937 16.392 237.777 16.328C237.521 16.264 237.265 16.28 237.009 16.376C236.785 16.472 236.561 16.584 236.337 16.712C236.113 16.84 235.905 16.968 235.713 17.096C235.521 17.224 235.345 17.288 235.185 17.288C235.185 17.384 235.009 17.304 234.657 17.048C234.337 16.76 234.065 16.488 233.841 16.232C233.297 15.784 232.897 15.704 232.641 15.992C232.417 16.248 232.225 16.6 232.065 17.048C232.097 17.4 232.145 17.64 232.209 17.768C232.305 17.896 232.401 17.992 232.497 18.056C232.625 18.088 232.737 18.088 232.833 18.056C232.673 18.184 232.545 18.424 232.449 18.776C232.353 19.096 232.273 19.464 232.209 19.88C232.177 20.264 232.161 20.68 232.161 21.128C232.193 21.544 232.241 21.928 232.305 22.28C232.369 22.664 232.321 23.336 232.161 24.296C232.033 25.256 232.001 26.36 232.065 27.608C232.065 28.088 232.049 28.6 232.017 29.144C231.985 29.656 231.953 30.168 231.921 30.68C231.889 31.16 231.857 31.608 231.825 32.024C231.793 32.408 231.777 32.712 231.777 32.936V33.08C231.169 33.592 230.545 33.896 229.905 33.992ZM255.111 3.992C255.175 3.736 255.207 3.496 255.207 3.272C255.239 3.016 255.271 2.76 255.303 2.504C255.303 2.28 255.303 2.088 255.303 1.928C255.335 1.768 255.351 1.624 255.351 1.496L255.591 0.967998C255.687 0.935998 255.815 0.919998 255.975 0.919998C256.135 0.919998 256.327 0.903998 256.551 0.871999C257.223 0.839999 257.655 0.759999 257.847 0.631999C257.847 0.599999 257.927 0.535999 258.087 0.439999C258.183 0.343998 258.263 0.279998 258.327 0.247998C258.359 0.247998 258.471 0.263998 258.663 0.295998C258.855 0.327997 259.111 0.391997 259.431 0.487998C259.975 0.615998 260.359 0.679998 260.583 0.679998C260.871 0.679998 261.031 0.663999 261.063 0.631999C261.095 0.599999 261.191 0.599999 261.351 0.631999L261.783 1.448L262.215 3.896L261.207 5.576C261.175 5.608 261.143 5.64 261.111 5.672C261.111 5.704 261.079 5.736 261.015 5.768C260.855 5.864 260.663 6.008 260.439 6.2L260.295 6.344L258.855 6.488C258.663 6.424 258.439 6.36 258.183 6.296C257.927 6.2 257.623 6.088 257.271 5.96C256.919 5.832 256.615 5.72 256.359 5.624C256.103 5.496 255.879 5.4 255.687 5.336L255.447 5.096L255.111 3.992ZM261.063 12.248L260.871 13.976L261.063 14.696L260.775 15.464L260.919 16.568L260.679 17.48L260.823 17.768L260.631 19.928L260.439 24.488C260.439 24.712 260.407 25 260.343 25.352C260.279 25.672 260.231 26.024 260.199 26.408C260.167 26.76 260.167 27.128 260.199 27.512C260.231 27.864 260.327 28.168 260.487 28.424C260.455 28.904 260.407 29.464 260.343 30.104C260.279 30.744 260.167 31.48 260.007 32.312C259.751 32.664 259.479 32.984 259.191 33.272C258.935 33.528 258.439 33.672 257.703 33.704C257.287 33.736 256.871 33.768 256.455 33.8C256.071 33.832 255.703 33.88 255.351 33.944C255.159 33.976 254.967 34.008 254.775 34.04C254.583 34.072 254.375 34.12 254.151 34.184L252.951 32.648C252.983 32.488 253.031 32.056 253.095 31.352C253.191 30.616 253.271 29.752 253.335 28.76C253.399 27.768 253.431 26.712 253.431 25.592C253.463 24.472 253.431 23.432 253.335 22.472L253.623 21.56L254.055 19.448L254.199 17.768L254.487 17.192L254.535 16.76L254.823 15.464L255.063 12.824L259.383 11.144L261.063 12.248ZM268.098 15.272L270.162 11.96C270.29 11.96 270.418 11.96 270.546 11.96C270.674 11.928 270.818 11.896 270.978 11.864C271.234 11.832 271.57 11.784 271.986 11.72C272.402 11.656 272.882 11.592 273.426 11.528C275.602 11.272 276.402 10.744 275.826 9.944L282.69 8.936H284.466L284.802 9.32L284.994 10.904L284.178 11.528L281.778 11.576L278.658 13.112L275.202 14.216L274.626 15.512L275.73 18.2L277.074 18.392L277.698 19.784L278.85 19.688L279.522 20.504C279.81 20.408 280.098 20.344 280.386 20.312C280.674 20.248 280.93 20.248 281.154 20.312C281.314 20.344 281.49 20.376 281.682 20.408C281.874 20.408 282.098 20.44 282.354 20.504C282.674 20.6 282.898 20.712 283.026 20.84C283.154 20.936 283.266 21.032 283.362 21.128C283.458 21.192 283.57 21.256 283.698 21.32C283.826 21.384 284.05 21.416 284.37 21.416C284.466 21.608 284.642 21.8 284.898 21.992C285.186 22.184 285.49 22.376 285.81 22.568C286.162 22.76 286.498 22.952 286.818 23.144C287.17 23.336 287.426 23.528 287.586 23.72C287.65 23.784 287.682 23.832 287.682 23.864C287.714 23.896 287.762 23.944 287.826 24.008L288.114 26.312L287.058 29.192L286.77 31.208L284.418 32.408L280.53 33.944L278.178 33.608C277.346 33.48 276.61 33.48 275.97 33.608C275.33 33.736 274.738 33.8 274.194 33.8H268.914L268.338 32.36L268.722 30.968L275.682 30.248L277.986 29.96L280.866 26.888L280.434 25.496L278.322 25.112L274.626 24.104L274.002 24.44L271.986 23.528L270.69 22.664L269.202 19.4L268.098 17.24V15.272ZM297.204 3.992C297.268 3.736 297.3 3.496 297.3 3.272C297.332 3.016 297.364 2.76 297.396 2.504C297.396 2.28 297.396 2.088 297.396 1.928C297.428 1.768 297.444 1.624 297.444 1.496L297.684 0.967998C297.78 0.935998 297.908 0.919998 298.068 0.919998C298.228 0.919998 298.42 0.903998 298.644 0.871999C299.316 0.839999 299.748 0.759999 299.94 0.631999C299.94 0.599999 300.02 0.535999 300.18 0.439999C300.276 0.343998 300.356 0.279998 300.42 0.247998C300.452 0.247998 300.564 0.263998 300.756 0.295998C300.948 0.327997 301.204 0.391997 301.524 0.487998C302.068 0.615998 302.452 0.679998 302.676 0.679998C302.964 0.679998 303.124 0.663999 303.156 0.631999C303.188 0.599999 303.284 0.599999 303.444 0.631999L303.876 1.448L304.308 3.896L303.3 5.576C303.268 5.608 303.236 5.64 303.204 5.672C303.204 5.704 303.172 5.736 303.108 5.768C302.948 5.864 302.756 6.008 302.532 6.2L302.388 6.344L300.948 6.488C300.756 6.424 300.532 6.36 300.276 6.296C300.02 6.2 299.716 6.088 299.364 5.96C299.012 5.832 298.708 5.72 298.452 5.624C298.196 5.496 297.972 5.4 297.78 5.336L297.54 5.096L297.204 3.992ZM303.156 12.248L302.964 13.976L303.156 14.696L302.868 15.464L303.012 16.568L302.772 17.48L302.916 17.768L302.724 19.928L302.532 24.488C302.532 24.712 302.5 25 302.436 25.352C302.372 25.672 302.324 26.024 302.292 26.408C302.26 26.76 302.26 27.128 302.292 27.512C302.324 27.864 302.42 28.168 302.58 28.424C302.548 28.904 302.5 29.464 302.436 30.104C302.372 30.744 302.26 31.48 302.1 32.312C301.844 32.664 301.572 32.984 301.284 33.272C301.028 33.528 300.532 33.672 299.796 33.704C299.38 33.736 298.964 33.768 298.548 33.8C298.164 33.832 297.796 33.88 297.444 33.944C297.252 33.976 297.06 34.008 296.868 34.04C296.676 34.072 296.468 34.12 296.244 34.184L295.044 32.648C295.076 32.488 295.124 32.056 295.188 31.352C295.284 30.616 295.364 29.752 295.428 28.76C295.492 27.768 295.524 26.712 295.524 25.592C295.556 24.472 295.524 23.432 295.428 22.472L295.716 21.56L296.148 19.448L296.292 17.768L296.58 17.192L296.628 16.76L296.916 15.464L297.156 12.824L301.476 11.144L303.156 12.248ZM316.623 33.992C316.527 33.992 316.319 34.008 315.999 34.04C315.711 34.04 315.391 34.056 315.039 34.088C314.687 34.088 314.351 34.104 314.031 34.136C313.711 34.136 313.487 34.136 313.359 34.136L312.303 34.232L311.487 33.656C311.455 33.176 311.487 32.616 311.583 31.976C311.711 31.336 311.775 30.84 311.775 30.488C312.159 30.488 312.239 30.104 312.015 29.336C311.759 28.568 311.663 27.96 311.727 27.512C311.759 27 311.839 26.488 311.967 25.976C312.095 25.432 312.111 25.08 312.015 24.92C311.951 24.728 311.871 24.52 311.775 24.296C311.679 24.04 311.599 23.752 311.535 23.432L312.111 20.312C312.111 18.584 312.127 17.256 312.159 16.328C312.223 15.4 312.271 14.712 312.303 14.264C312.367 13.816 312.431 13.544 312.495 13.448C312.591 13.32 312.655 13.208 312.687 13.112C312.751 13.016 312.783 12.856 312.783 12.632C312.815 12.408 312.815 11.96 312.783 11.288L313.791 10.76C314.335 10.792 314.991 10.888 315.759 11.048C316.559 11.176 317.327 11.32 318.063 11.48C318.447 11.544 318.783 11.608 319.071 11.672C319.359 11.704 319.615 11.752 319.839 11.816L320.511 12.728C319.903 13.144 319.503 13.416 319.311 13.544C319.119 13.672 319.103 13.944 319.263 14.36C319.839 14.872 320.335 15.032 320.751 14.84C321.199 14.648 321.503 14.344 321.663 13.928L324.783 13.16H326.607L327.423 13.448C328.191 13.704 328.959 13.976 329.727 14.264C330.527 14.552 331.183 14.776 331.695 14.936L332.559 17.048L332.511 17.624C332.575 18.552 332.623 19.448 332.655 20.312C332.719 21.144 332.719 22.168 332.655 23.384C332.623 24.152 332.591 24.936 332.559 25.736C332.527 26.504 332.495 27.24 332.463 27.944C332.463 28.648 332.463 29.272 332.463 29.816C332.463 30.328 332.463 30.712 332.463 30.968C332.463 31 332.495 31.128 332.559 31.352C332.655 31.576 332.783 31.816 332.943 32.072L332.607 32.6L331.695 33.032C331.247 33.064 330.671 33.144 329.967 33.272C329.295 33.4 328.735 33.464 328.287 33.464C328.095 33.464 327.935 33.4 327.807 33.272C327.679 33.112 327.391 33.048 326.943 33.08L326.271 32.504C326.335 32.088 326.351 31.752 326.319 31.496C326.287 31.208 326.239 30.968 326.175 30.776C326.111 30.552 326.047 30.36 325.983 30.2C325.919 30.04 325.887 29.88 325.887 29.72C325.919 29.24 325.967 28.712 326.031 28.136C326.095 27.688 326.159 27.176 326.223 26.6C326.319 25.992 326.431 25.4 326.559 24.824C326.623 24.472 326.655 24.024 326.655 23.48C326.655 22.904 326.655 22.344 326.655 21.8C326.655 21.224 326.655 20.68 326.655 20.168C326.655 19.656 326.671 19.272 326.703 19.016L325.311 16.568C325.183 16.536 325.055 16.504 324.927 16.472C324.799 16.44 324.655 16.392 324.495 16.328C324.239 16.264 323.983 16.28 323.727 16.376C323.503 16.472 323.279 16.584 323.055 16.712C322.831 16.84 322.623 16.968 322.431 17.096C322.239 17.224 322.063 17.288 321.903 17.288C321.903 17.384 321.727 17.304 321.375 17.048C321.055 16.76 320.783 16.488 320.559 16.232C320.015 15.784 319.615 15.704 319.359 15.992C319.135 16.248 318.943 16.6 318.783 17.048C318.815 17.4 318.863 17.64 318.927 17.768C319.023 17.896 319.119 17.992 319.215 18.056C319.343 18.088 319.455 18.088 319.551 18.056C319.391 18.184 319.263 18.424 319.167 18.776C319.071 19.096 318.991 19.464 318.927 19.88C318.895 20.264 318.879 20.68 318.879 21.128C318.911 21.544 318.959 21.928 319.023 22.28C319.087 22.664 319.039 23.336 318.879 24.296C318.751 25.256 318.719 26.36 318.783 27.608C318.783 28.088 318.767 28.6 318.735 29.144C318.703 29.656 318.671 30.168 318.639 30.68C318.607 31.16 318.575 31.608 318.543 32.024C318.511 32.408 318.495 32.712 318.495 32.936V33.08C317.887 33.592 317.263 33.896 316.623 33.992ZM341.829 3.992C341.893 3.736 341.925 3.496 341.925 3.272C341.957 3.016 341.989 2.76 342.021 2.504C342.021 2.28 342.021 2.088 342.021 1.928C342.053 1.768 342.069 1.624 342.069 1.496L342.309 0.967998C342.405 0.935998 342.533 0.919998 342.693 0.919998C342.853 0.919998 343.045 0.903998 343.269 0.871999C343.941 0.839999 344.373 0.759999 344.565 0.631999C344.565 0.599999 344.645 0.535999 344.805 0.439999C344.901 0.343998 344.981 0.279998 345.045 0.247998C345.077 0.247998 345.189 0.263998 345.381 0.295998C345.573 0.327997 345.829 0.391997 346.149 0.487998C346.693 0.615998 347.077 0.679998 347.301 0.679998C347.589 0.679998 347.749 0.663999 347.781 0.631999C347.813 0.599999 347.909 0.599999 348.069 0.631999L348.501 1.448L348.933 3.896L347.925 5.576C347.893 5.608 347.861 5.64 347.829 5.672C347.829 5.704 347.797 5.736 347.733 5.768C347.573 5.864 347.381 6.008 347.157 6.2L347.013 6.344L345.573 6.488C345.381 6.424 345.157 6.36 344.901 6.296C344.645 6.2 344.341 6.088 343.989 5.96C343.637 5.832 343.333 5.72 343.077 5.624C342.821 5.496 342.597 5.4 342.405 5.336L342.165 5.096L341.829 3.992ZM347.781 12.248L347.589 13.976L347.781 14.696L347.493 15.464L347.637 16.568L347.397 17.48L347.541 17.768L347.349 19.928L347.157 24.488C347.157 24.712 347.125 25 347.061 25.352C346.997 25.672 346.949 26.024 346.917 26.408C346.885 26.76 346.885 27.128 346.917 27.512C346.949 27.864 347.045 28.168 347.205 28.424C347.173 28.904 347.125 29.464 347.061 30.104C346.997 30.744 346.885 31.48 346.725 32.312C346.469 32.664 346.197 32.984 345.909 33.272C345.653 33.528 345.157 33.672 344.421 33.704C344.005 33.736 343.589 33.768 343.173 33.8C342.789 33.832 342.421 33.88 342.069 33.944C341.877 33.976 341.685 34.008 341.493 34.04C341.301 34.072 341.093 34.12 340.869 34.184L339.669 32.648C339.701 32.488 339.749 32.056 339.813 31.352C339.909 30.616 339.989 29.752 340.053 28.76C340.117 27.768 340.149 26.712 340.149 25.592C340.181 24.472 340.149 23.432 340.053 22.472L340.341 21.56L340.773 19.448L340.917 17.768L341.205 17.192L341.253 16.76L341.541 15.464L341.781 12.824L346.101 11.144L347.781 12.248Z" fill="black"/>
</svg>
